REM DIRINDEX 1\2,1\3,1\4,1\5
REM DIRNAME folder01,folder02,folder03,folder04,folder05
TITLE ""
FILE "CD2Track12.mp3" MP3
  TRACK 01 AUDIO
    TITLE "5:cjc155_2882"
    INDEX 01 00:00:00
  TRACK 02 AUDIO
    TITLE "0:"
    INDEX 01 00:01:40
  TRACK 03 AUDIO
    TITLE "2:cjc155_2883"
    INDEX 01 00:02:51
  TRACK 04 AUDIO
    TITLE "3:cjc155_2884"
    INDEX 01 00:04:36
  TRACK 05 AUDIO
    TITLE "2:cjc155_2885"
    INDEX 01 00:06:24
  TRACK 06 AUDIO
    TITLE "3:cjc155_2886"
    INDEX 01 00:07:60
  TRACK 07 AUDIO
    TITLE "2:cjc155_2887"
    INDEX 01 00:09:28
  TRACK 08 AUDIO
    TITLE "3:cjc155_2888"
    INDEX 01 00:10:70
  TRACK 09 AUDIO
    TITLE "2:cjc155_2889"
    INDEX 01 00:12:48
  TRACK 10 AUDIO
    TITLE "3:cjc155_2890"
    INDEX 01 00:15:03
  TRACK 11 AUDIO
    TITLE "2:cjc155_2891"
    INDEX 01 00:17:49
  TRACK 12 AUDIO
    TITLE "3:cjc155_2892"
    INDEX 01 00:19:26
  TRACK 13 AUDIO
    TITLE "2:cjc155_2893"
    INDEX 01 00:21:08
  TRACK 14 AUDIO
    TITLE "3:cjc155_2894"
    INDEX 01 00:23:32
  TRACK 15 AUDIO
    TITLE "2:cjc155_2895"
    INDEX 01 00:25:66
  TRACK 16 AUDIO
    TITLE "3:cjc155_2896"
    INDEX 01 00:28:37
  TRACK 17 AUDIO
    TITLE "2:cjc155_2897"
    INDEX 01 00:31:20
  TRACK 18 AUDIO
    TITLE "3:cjc155_2898"
    INDEX 01 00:32:35
  TRACK 19 AUDIO
    TITLE "2:cjc155_2899"
    INDEX 01 00:33:60
  TRACK 20 AUDIO
    TITLE "3:cjc155_2900"
    INDEX 01 00:35:63
  TRACK 21 AUDIO
    TITLE "2:cjc155_2901"
    INDEX 01 00:37:69
  TRACK 22 AUDIO
    TITLE "3:cjc155_2902"
    INDEX 01 00:39:51
  TRACK 23 AUDIO
    TITLE "2:cjc155_2903"
    INDEX 01 00:41:30
  TRACK 24 AUDIO
    TITLE "3:cjc155_2904"
    INDEX 01 00:44:07
  TRACK 25 AUDIO
    TITLE "2:cjc155_2905"
    INDEX 01 00:46:66
  TRACK 26 AUDIO
    TITLE "3:cjc155_2906"
    INDEX 01 00:47:72
  TRACK 27 AUDIO
    TITLE "2:cjc155_2907"
    INDEX 01 00:49:10
  TRACK 28 AUDIO
    TITLE "3:cjc155_2908"
    INDEX 01 00:50:25
  TRACK 29 AUDIO
    TITLE "2:cjc155_2909"
    INDEX 01 00:51:52
  TRACK 30 AUDIO
    TITLE "3:cjc155_2910"
    INDEX 01 00:53:47
  TRACK 31 AUDIO
    TITLE "2:cjc155_2911"
    INDEX 01 00:55:50
  TRACK 32 AUDIO
    TITLE "3:cjc155_2912"
    INDEX 01 00:57:39
  TRACK 33 AUDIO
    TITLE "2:cjc155_2913"
    INDEX 01 00:59:38
  TRACK 34 AUDIO
    TITLE "3:cjc155_2914"
    INDEX 01 01:00:41
  TRACK 35 AUDIO
    TITLE "2:cjc155_2915"
    INDEX 01 01:01:52
  TRACK 36 AUDIO
    TITLE "3:cjc155_2916"
    INDEX 01 01:03:39
  TRACK 37 AUDIO
    TITLE "2:cjc155_2917"
    INDEX 01 01:05:36
  TRACK 38 AUDIO
    TITLE "3:cjc155_2918"
    INDEX 01 01:06:34
  TRACK 39 AUDIO
    TITLE "2:cjc155_2919"
    INDEX 01 01:07:41
  TRACK 40 AUDIO
    TITLE "3:cjc155_2920"
    INDEX 01 01:09:71
  TRACK 41 AUDIO
    TITLE "2:cjc155_2921"
    INDEX 01 01:12:36
  TRACK 42 AUDIO
    TITLE "3:cjc155_2922"
    INDEX 01 01:13:59
  TRACK 43 AUDIO
    TITLE "2:cjc155_2923"
    INDEX 01 01:15:23
  TRACK 44 AUDIO
    TITLE "3:cjc155_2924"
    INDEX 01 01:16:18
  TRACK 45 AUDIO
    TITLE "2:cjc155_2925"
    INDEX 01 01:17:16
  TRACK 46 AUDIO
    TITLE "3:cjc155_2926"
    INDEX 01 01:19:74
  TRACK 47 AUDIO
    TITLE "2:cjc155_2927"
    INDEX 01 01:22:58
  TRACK 48 AUDIO
    TITLE "3:cjc155_2928"
    INDEX 01 01:25:29
  TRACK 49 AUDIO
    TITLE "2:cjc155_2929"
    INDEX 01 01:28:04
  TRACK 50 AUDIO
    TITLE "3:cjc155_2930"
    INDEX 01 01:30:30
  TRACK 51 AUDIO
    TITLE "2:cjc155_2931"
    INDEX 01 01:32:59
  TRACK 52 AUDIO
    TITLE "3:cjc155_2932"
    INDEX 01 01:34:01
  TRACK 53 AUDIO
    TITLE "2:cjc155_2933"
    INDEX 01 01:35:22
  TRACK 54 AUDIO
    TITLE "3:cjc155_2934"
    INDEX 01 01:36:47
  TRACK 55 AUDIO
    TITLE "2:cjc155_2935"
    INDEX 01 01:37:73
  TRACK 56 AUDIO
    TITLE "3:cjc155_2936"
    INDEX 01 01:39:39
  TRACK 57 AUDIO
    TITLE "2:cjc155_2937"
    INDEX 01 01:41:14
  TRACK 58 AUDIO
    TITLE "3:cjc155_2938"
    INDEX 01 01:42:61
  TRACK 59 AUDIO
    TITLE "2:cjc155_2939"
    INDEX 01 01:44:44
  TRACK 60 AUDIO
    TITLE "3:cjc155_2940"
    INDEX 01 01:46:66
  TRACK 61 AUDIO
    TITLE "2:cjc155_2941"
    INDEX 01 01:49:16
  TRACK 62 AUDIO
    TITLE "3:cjc155_2942"
    INDEX 01 01:50:27
  TRACK 63 AUDIO
    TITLE "2:cjc155_2943"
    INDEX 01 01:51:44
  TRACK 64 AUDIO
    TITLE "3:cjc155_2944"
    INDEX 01 01:53:59
  TRACK 65 AUDIO
    TITLE "2:cjc155_2945"
    INDEX 01 01:56:04
  TRACK 66 AUDIO
    TITLE "3:cjc155_2946"
    INDEX 01 01:57:47
  TRACK 67 AUDIO
    TITLE "2:cjc155_2947"
    INDEX 01 01:59:24
  TRACK 68 AUDIO
    TITLE "3:cjc155_2948"
    INDEX 01 02:00:67
  TRACK 69 AUDIO
    TITLE "2:cjc155_2949"
    INDEX 01 02:02:40
  TRACK 70 AUDIO
    TITLE "3:cjc155_2950"
    INDEX 01 02:04:33
  TRACK 71 AUDIO
    TITLE "2:cjc155_2951"
    INDEX 01 02:06:32
  TRACK 72 AUDIO
    TITLE "3:cjc155_2952"
    INDEX 01 02:08:11
  TRACK 73 AUDIO
    TITLE "2:cjc155_2953"
    INDEX 01 02:10:02
  TRACK 74 AUDIO
    TITLE "3:cjc155_2954"
    INDEX 01 02:11:31
  TRACK 75 AUDIO
    TITLE "2:cjc155_2955"
    INDEX 01 02:12:66
  TRACK 76 AUDIO
    TITLE "3:cjc155_2956"
    INDEX 01 02:13:67
  TRACK 77 AUDIO
    TITLE "2:cjc155_2957"
    INDEX 01 02:15:03
  TRACK 78 AUDIO
    TITLE "3:cjc155_2958"
    INDEX 01 02:16:07
  TRACK 79 AUDIO
    TITLE "2:cjc155_2959"
    INDEX 01 02:17:20
  TRACK 80 AUDIO
    TITLE "3:cjc155_2960"
    INDEX 01 02:18:35
  TRACK 81 AUDIO
    TITLE "2:cjc155_2961"
    INDEX 01 02:19:60
  TRACK 82 AUDIO
    TITLE "3:cjc155_2962"
    INDEX 01 02:21:06
  TRACK 83 AUDIO
    TITLE "2:cjc155_2963"
    INDEX 01 02:22:41
  TRACK 84 AUDIO
    TITLE "3:cjc155_2964"
    INDEX 01 02:24:12
  TRACK 85 AUDIO
    TITLE "2:cjc155_2965"
    INDEX 01 02:25:61
  TRACK 86 AUDIO
    TITLE "3:cjc155_2966"
    INDEX 01 02:27:40
  TRACK 87 AUDIO
    TITLE "2:cjc155_2967"
    INDEX 01 02:29:27
  TRACK 88 AUDIO
    TITLE "3:cjc155_2968"
    INDEX 01 02:30:42
  TRACK 89 AUDIO
    TITLE "2:cjc155_2969"
    INDEX 01 02:31:67
  TRACK 90 AUDIO
    TITLE "3:cjc155_2970"
    INDEX 01 02:33:46
  TRACK 91 AUDIO
    TITLE "2:cjc155_2971"
    INDEX 01 02:35:26
  TRACK 92 AUDIO
    TITLE "3:cjc155_2972"
    INDEX 01 02:36:60
  TRACK 93 AUDIO
    TITLE "2:cjc155_2973"
    INDEX 01 02:38:24
  TRACK 94 AUDIO
    TITLE "3:cjc155_2974"
    INDEX 01 02:39:29
  TRACK 95 AUDIO
    TITLE "2:cjc155_2975"
    INDEX 01 02:40:47
  TRACK 96 AUDIO
    TITLE "3:cjc155_2976"
    INDEX 01 02:41:69
  TRACK 97 AUDIO
    TITLE "2:cjc155_2977"
    INDEX 01 02:43:29
  TRACK 98 AUDIO
    TITLE "3:cjc155_2978"
    INDEX 01 02:44:33
  TRACK 99 AUDIO
    TITLE "2:cjc155_2979"
    INDEX 01 02:45:34
  TRACK 100 AUDIO
    TITLE "3:cjc155_2980"
    INDEX 01 02:46:43
  TRACK 101 AUDIO
    TITLE "2:cjc155_2981"
    INDEX 01 02:47:51
  TRACK 102 AUDIO
    TITLE "3:cjc155_2982"
    INDEX 01 02:49:36
  TRACK 103 AUDIO
    TITLE "2:cjc155_2983"
    INDEX 01 02:51:25
  TRACK 104 AUDIO
    TITLE "3:cjc155_2984"
    INDEX 01 02:53:04
  TRACK 105 AUDIO
    TITLE "2:cjc155_2985"
    INDEX 01 02:54:58
  TRACK 106 AUDIO
    TITLE "3:cjc155_2986"
    INDEX 01 02:56:06
  TRACK 107 AUDIO
    TITLE "2:cjc155_2987"
    INDEX 01 02:57:35
  TRACK 108 AUDIO
    TITLE "3:cjc155_2988"
    INDEX 01 02:58:70
  TRACK 109 AUDIO
    TITLE "2:cjc155_2989"
    INDEX 01 03:00:39
  TRACK 110 AUDIO
    TITLE "3:cjc155_2990"
    INDEX 01 03:01:72
  TRACK 111 AUDIO
    TITLE "2:cjc155_2991"
    INDEX 01 03:03:40
  TRACK 112 AUDIO
    TITLE "3:cjc155_2992"
    INDEX 01 03:04:53
  TRACK 113 AUDIO
    TITLE "2:cjc155_2993"
    INDEX 01 03:06:03
  TRACK 114 AUDIO
    TITLE "3:cjc155_2994"
    INDEX 01 03:07:55
  TRACK 115 AUDIO
    TITLE "2:cjc155_2995"
    INDEX 01 03:09:40
  TRACK 116 AUDIO
    TITLE "3:cjc155_2996"
    INDEX 01 03:10:54
  TRACK 117 AUDIO
    TITLE "2:cjc155_2997"
    INDEX 01 03:12:01
  TRACK 118 AUDIO
    TITLE "3:cjc155_2998"
    INDEX 01 03:13:34
  TRACK 119 AUDIO
    TITLE "2:cjc155_2999"
    INDEX 01 03:14:73
  TRACK 120 AUDIO
    TITLE "3:cjc155_3000"
    INDEX 01 03:16:36
  TRACK 121 AUDIO
    TITLE "2:cjc155_3001"
    INDEX 01 03:18:06
  TRACK 122 AUDIO
    TITLE "3:cjc155_3002"
    INDEX 01 03:19:05
  TRACK 123 AUDIO
    TITLE "2:cjc155_3003"
    INDEX 01 03:20:13
  TRACK 124 AUDIO
    TITLE "3:cjc155_3004"
    INDEX 01 03:21:44
  TRACK 125 AUDIO
    TITLE "2:cjc155_3005"
    INDEX 01 03:23:07
  TRACK 126 AUDIO
    TITLE "3:cjc155_3006"
    INDEX 01 03:24:18
  TRACK 127 AUDIO
    TITLE "2:cjc155_3007"
    INDEX 01 03:25:30
  TRACK 128 AUDIO
    TITLE "3:cjc155_3008"
    INDEX 01 03:27:15
  TRACK 129 AUDIO
    TITLE "2:cjc155_3009"
    INDEX 01 03:29:02
  TRACK 130 AUDIO
    TITLE "3:cjc155_3010"
    INDEX 01 03:30:29
  TRACK 131 AUDIO
    TITLE "2:cjc155_3011"
    INDEX 01 03:31:67
  TRACK 132 AUDIO
    TITLE "3:cjc155_3012"
    INDEX 01 03:33:19
  TRACK 133 AUDIO
    TITLE "2:cjc155_3013"
    INDEX 01 03:34:52
  TRACK 134 AUDIO
    TITLE "3:cjc155_3014"
    INDEX 01 03:37:03
  TRACK 135 AUDIO
    TITLE "2:cjc155_3015"
    INDEX 01 03:39:39
  TRACK 136 AUDIO
    TITLE "3:cjc155_3016"
    INDEX 01 03:41:54
  TRACK 137 AUDIO
    TITLE "2:cjc155_3017"
    INDEX 01 03:44:01
  TRACK 138 AUDIO
    TITLE "3:cjc155_3018"
    INDEX 01 03:46:20
  TRACK 139 AUDIO
    TITLE "2:cjc155_3019"
    INDEX 01 03:48:50
  TRACK 140 AUDIO
    TITLE "3:cjc155_3020"
    INDEX 01 03:50:18
  TRACK 141 AUDIO
    TITLE "2:cjc155_3021"
    INDEX 01 03:51:68
  TRACK 142 AUDIO
    TITLE "3:cjc155_3022"
    INDEX 01 03:53:20
  TRACK 143 AUDIO
    TITLE "2:cjc155_3023"
    INDEX 01 03:54:55
  TRACK 144 AUDIO
    TITLE "3:cjc155_3024"
    INDEX 01 03:56:38
  TRACK 145 AUDIO
    TITLE "2:cjc155_3025"
    INDEX 01 03:58:33
  TRACK 146 AUDIO
    TITLE "3:cjc155_3026"
    INDEX 01 04:00:48
  TRACK 147 AUDIO
    TITLE "2:cjc155_3027"
    INDEX 01 04:02:70
  TRACK 148 AUDIO
    TITLE "3:cjc155_3028"
    INDEX 01 04:04:20
  TRACK 149 AUDIO
    TITLE "2:cjc155_3029"
    INDEX 01 04:05:43
  TRACK 150 AUDIO
    TITLE "3:cjc155_3030"
    INDEX 01 04:06:74
  TRACK 151 AUDIO
    TITLE "2:cjc155_3031"
    INDEX 01 04:08:43
  TRACK 152 AUDIO
    TITLE "3:cjc155_3032"
    INDEX 01 04:09:62
  TRACK 153 AUDIO
    TITLE "2:cjc155_3033"
    INDEX 01 04:11:20
  TRACK 154 AUDIO
    TITLE "3:cjc155_3034"
    INDEX 01 04:13:19
  TRACK 155 AUDIO
    TITLE "2:cjc155_3035"
    INDEX 01 04:15:27
  TRACK 156 AUDIO
    TITLE "3:cjc155_3036"
    INDEX 01 04:16:64
  TRACK 157 AUDIO
    TITLE "2:cjc155_3037"
    INDEX 01 04:18:40
  TRACK 158 AUDIO
    TITLE "3:cjc155_3038"
    INDEX 01 04:20:50
  TRACK 159 AUDIO
    TITLE "2:cjc155_3039"
    INDEX 01 04:23:00
  TRACK 160 AUDIO
    TITLE "3:cjc155_3040"
    INDEX 01 04:25:12
  TRACK 161 AUDIO
    TITLE "2:cjc155_3041"
    INDEX 01 04:27:35
  TRACK 162 AUDIO
    TITLE "3:cjc155_3042"
    INDEX 01 04:29:45
  TRACK 163 AUDIO
    TITLE "2:cjc155_3043"
    INDEX 01 04:31:74
  TRACK 164 AUDIO
    TITLE "3:cjc155_3044"
    INDEX 01 04:33:21
  TRACK 165 AUDIO
    TITLE "2:cjc155_3045"
    INDEX 01 04:34:56
  TRACK 166 AUDIO
    TITLE "3:cjc155_3046"
    INDEX 01 04:36:22
  TRACK 167 AUDIO
    TITLE "2:cjc155_3047"
    INDEX 01 04:37:70
  TRACK 168 AUDIO
    TITLE "3:cjc155_3048"
    INDEX 01 04:39:44
  TRACK 169 AUDIO
    TITLE "2:cjc155_3049"
    INDEX 01 04:41:19
  TRACK 170 AUDIO
    TITLE "3:cjc155_3050"
    INDEX 01 04:42:17
  TRACK 171 AUDIO
    TITLE "2:cjc155_3051"
    INDEX 01 04:43:24
  TRACK 172 AUDIO
    TITLE "3:cjc155_3052"
    INDEX 01 04:44:47
  TRACK 173 AUDIO
    TITLE "2:cjc155_3053"
    INDEX 01 04:46:06
  TRACK 174 AUDIO
    TITLE "3:cjc155_3054"
    INDEX 01 04:47:14
  TRACK 175 AUDIO
    TITLE "2:cjc155_3055"
    INDEX 01 04:48:29
  TRACK 176 AUDIO
    TITLE "3:cjc155_3056"
    INDEX 01 04:49:34
  TRACK 177 AUDIO
    TITLE "2:cjc155_3057"
    INDEX 01 04:50:42
  TRACK 178 AUDIO
    TITLE "3:cjc155_3058"
    INDEX 01 04:51:59
  TRACK 179 AUDIO
    TITLE "2:cjc155_3059"
    INDEX 01 04:53:07
  TRACK 180 AUDIO
    TITLE "3:cjc155_3060"
    INDEX 01 04:54:51
  TRACK 181 AUDIO
    TITLE "2:cjc155_3061"
    INDEX 01 04:56:30
  TRACK 182 AUDIO
    TITLE "3:cjc155_3062"
    INDEX 01 04:58:18
  TRACK 183 AUDIO
    TITLE "2:cjc155_3063"
    INDEX 01 05:00:12
  TRACK 184 AUDIO
    TITLE "3:cjc155_3064"
    INDEX 01 05:02:02
  TRACK 185 AUDIO
    TITLE "2:cjc155_3065"
    INDEX 01 05:03:74
  TRACK 186 AUDIO
    TITLE "3:cjc155_3066"
    INDEX 01 05:05:67
  TRACK 187 AUDIO
    TITLE "2:cjc155_3067"
    INDEX 01 05:07:67
  TRACK 188 AUDIO
    TITLE "3:cjc155_3068"
    INDEX 01 05:09:64
  TRACK 189 AUDIO
    TITLE "2:cjc155_3069"
    INDEX 01 05:11:71
  TRACK 190 AUDIO
    TITLE "3:cjc155_3070"
    INDEX 01 05:13:19
  TRACK 191 AUDIO
    TITLE "2:cjc155_3071"
    INDEX 01 05:14:52
  TRACK 192 AUDIO
    TITLE "3:cjc155_3072"
    INDEX 01 05:16:04
  TRACK 193 AUDIO
    TITLE "2:cjc155_3073"
    INDEX 01 05:17:33
  TRACK 194 AUDIO
    TITLE "3:cjc155_3074"
    INDEX 01 05:18:54
  TRACK 195 AUDIO
    TITLE "2:cjc155_3075"
    INDEX 01 05:20:07
  TRACK 196 AUDIO
    TITLE "3:cjc155_3076"
    INDEX 01 05:22:00
  TRACK 197 AUDIO
    TITLE "2:cjc155_3077"
    INDEX 01 05:24:03
  TRACK 198 AUDIO
    TITLE "3:cjc155_3078"
    INDEX 01 05:26:26
  TRACK 199 AUDIO
    TITLE "2:cjc155_3079"
    INDEX 01 05:28:54
  TRACK 200 AUDIO
    TITLE "3:cjc155_3080"
    INDEX 01 05:30:49
  TRACK 201 AUDIO
    TITLE "2:cjc155_3081"
    INDEX 01 05:32:52
  TRACK 202 AUDIO
    TITLE "3:cjc155_3082"
    INDEX 01 05:33:55
  TRACK 203 AUDIO
    TITLE "2:cjc155_3083"
    INDEX 01 05:34:72
  TRACK 204 AUDIO
    TITLE "3:cjc155_3084"
    INDEX 01 05:36:32
  TRACK 205 AUDIO
    TITLE "2:cjc155_3085"
    INDEX 01 05:37:69
  TRACK 206 AUDIO
    TITLE "3:cjc155_3086"
    INDEX 01 05:39:01
  TRACK 207 AUDIO
    TITLE "2:cjc155_3087"
    INDEX 01 05:40:12
  TRACK 208 AUDIO
    TITLE "3:cjc155_3088"
    INDEX 01 05:41:64
  TRACK 209 AUDIO
    TITLE "2:cjc155_3089"
    INDEX 01 05:43:53
  TRACK 210 AUDIO
    TITLE "3:cjc155_3090"
    INDEX 01 05:45:11
  TRACK 211 AUDIO
    TITLE "2:cjc155_3091"
    INDEX 01 05:46:52
  TRACK 212 AUDIO
    TITLE "3:cjc155_3092"
    INDEX 01 05:48:17
  TRACK 213 AUDIO
    TITLE "2:cjc155_3093"
    INDEX 01 05:49:64
  TRACK 214 AUDIO
    TITLE "3:cjc155_3094"
    INDEX 01 05:51:22
  TRACK 215 AUDIO
    TITLE "2:cjc155_3095"
    INDEX 01 05:52:54
  TRACK 216 AUDIO
    TITLE "3:cjc155_3096"
    INDEX 01 05:54:34
  TRACK 217 AUDIO
    TITLE "2:cjc155_3097"
    INDEX 01 05:56:17
  TRACK 218 AUDIO
    TITLE "3:cjc155_3098"
    INDEX 01 05:57:63
  TRACK 219 AUDIO
    TITLE "2:cjc155_3099"
    INDEX 01 05:59:47
  TRACK 220 AUDIO
    TITLE "3:cjc155_3100"
    INDEX 01 06:01:61
  TRACK 221 AUDIO
    TITLE "2:cjc155_3101"
    INDEX 01 06:04:11
  TRACK 222 AUDIO
    TITLE "3:cjc155_3102"
    INDEX 01 06:05:65
  TRACK 223 AUDIO
    TITLE "2:cjc155_3103"
    INDEX 01 06:07:56
  TRACK 224 AUDIO
    TITLE "3:cjc155_3104"
    INDEX 01 06:09:63
  TRACK 225 AUDIO
    TITLE "2:cjc155_3105"
    INDEX 01 06:12:02
  TRACK 226 AUDIO
    TITLE "3:cjc155_3106"
    INDEX 01 06:12:71
  TRACK 227 AUDIO
    TITLE "2:cjc155_3107"
    INDEX 01 06:14:01
  TRACK 228 AUDIO
    TITLE "3:cjc155_3108"
    INDEX 01 06:15:61
  TRACK 229 AUDIO
    TITLE "2:cjc155_3109"
    INDEX 01 06:17:58
  TRACK 230 AUDIO
    TITLE "3:cjc155_3110"
    INDEX 01 06:19:12
  TRACK 231 AUDIO
    TITLE "2:cjc155_3111"
    INDEX 01 06:20:51
  TRACK 232 AUDIO
    TITLE "3:cjc155_3112"
    INDEX 01 06:22:34
  TRACK 233 AUDIO
    TITLE "2:cjc155_3113"
    INDEX 01 06:24:27
  TRACK 234 AUDIO
    TITLE "3:cjc155_3114"
    INDEX 01 06:26:38
  TRACK 235 AUDIO
    TITLE "2:cjc155_3115"
    INDEX 01 06:28:52
  TRACK 236 AUDIO
    TITLE "3:cjc155_3116"
    INDEX 01 06:30:10
  TRACK 237 AUDIO
    TITLE "2:cjc155_3117"
    INDEX 01 06:31:51
  TRACK 238 AUDIO
    TITLE "3:cjc155_3118"
    INDEX 01 06:33:51
  TRACK 239 AUDIO
    TITLE "2:cjc155_3119"
    INDEX 01 06:35:60
  TRACK 240 AUDIO
    TITLE "3:cjc155_3120"
    INDEX 01 06:37:12
  TRACK 241 AUDIO
    TITLE "2:cjc155_3121"
    INDEX 01 06:38:53
  TRACK 242 AUDIO
    TITLE "3:cjc155_3122"
    INDEX 01 06:40:34
  TRACK 243 AUDIO
    TITLE "2:cjc155_3123"
    INDEX 01 06:42:21
  TRACK 244 AUDIO
    TITLE "3:cjc155_3124"
    INDEX 01 06:43:54
  TRACK 245 AUDIO
    TITLE "2:cjc155_3125"
    INDEX 01 06:45:11
  TRACK 246 AUDIO
    TITLE "3:cjc155_3126"
    INDEX 01 06:46:40
  TRACK 247 AUDIO
    TITLE "2:cjc155_3127"
    INDEX 01 06:48:00
  TRACK 248 AUDIO
    TITLE "3:cjc155_3128"
    INDEX 01 06:49:43
  TRACK 249 AUDIO
    TITLE "2:cjc155_3129"
    INDEX 01 06:51:08
  TRACK 250 AUDIO
    TITLE "3:cjc155_3130"
    INDEX 01 06:52:33
  TRACK 251 AUDIO
    TITLE "2:cjc155_3131"
    INDEX 01 06:53:62
  TRACK 252 AUDIO
    TITLE "3:cjc155_3132"
    INDEX 01 06:55:00
  TRACK 253 AUDIO
    TITLE "2:cjc155_3133"
    INDEX 01 06:56:15
  TRACK 254 AUDIO
    TITLE "3:cjc155_3134"
    INDEX 01 06:57:22
  TRACK 255 AUDIO
    TITLE "2:cjc155_3135"
    INDEX 01 06:58:36
  TRACK 256 AUDIO
    TITLE "3:cjc155_3136"
    INDEX 01 07:00:25
  TRACK 257 AUDIO
    TITLE "2:cjc155_3137"
    INDEX 01 07:02:16
  TRACK 258 AUDIO
    TITLE "3:cjc155_3138"
    INDEX 01 07:04:72
  TRACK 259 AUDIO
    TITLE "2:cjc155_3139"
    INDEX 01 07:07:60
  TRACK 260 AUDIO
    TITLE "3:cjc155_3140"
    INDEX 01 07:09:32
  TRACK 261 AUDIO
    TITLE "2:cjc155_3141"
    INDEX 01 07:11:11
  TRACK 262 AUDIO
    TITLE "3:cjc155_3142"
    INDEX 01 07:12:73
  TRACK 263 AUDIO
    TITLE "2:cjc155_3143"
    INDEX 01 07:14:68
  TRACK 264 AUDIO
    TITLE "3:cjc155_3144"
    INDEX 01 07:16:28
  TRACK 265 AUDIO
    TITLE "2:cjc155_3145"
    INDEX 01 07:17:62
  TRACK 266 AUDIO
    TITLE "3:cjc155_3146"
    INDEX 01 07:19:14
  TRACK 267 AUDIO
    TITLE "2:cjc155_3147"
    INDEX 01 07:20:53
  TRACK 268 AUDIO
    TITLE "3:cjc155_3148"
    INDEX 01 07:22:38
  TRACK 269 AUDIO
    TITLE "2:cjc155_3149"
    INDEX 01 07:24:29
  TRACK 270 AUDIO
    TITLE "3:cjc155_3150"
    INDEX 01 07:25:46
  TRACK 271 AUDIO
    TITLE "2:cjc155_3151"
    INDEX 01 07:26:73
  TRACK 272 AUDIO
    TITLE "3:cjc155_3152"
    INDEX 01 07:28:13
  TRACK 273 AUDIO
    TITLE "2:cjc155_3153"
    INDEX 01 07:29:36
  TRACK 274 AUDIO
    TITLE "3:cjc155_3154"
    INDEX 01 07:31:08
  TRACK 275 AUDIO
    TITLE "2:cjc155_3155"
    INDEX 01 07:32:60
  TRACK 276 AUDIO
    TITLE "3:cjc155_3156"
    INDEX 01 07:35:21
  TRACK 277 AUDIO
    TITLE "0:"
    INDEX 01 07:37:69
